<mxfile host="app.diagrams.net" modified="2022-02-08T11:56:54.595Z" agent="5.0 (X11; Linux x86_64) AppleWebKit/537.36 (KHTML, like Gecko) Chrome/98.0.4758.80 Safari/537.36" etag="kMOqtsClh6gHEcmln0or" version="16.5.3" type="github">
  <diagram id="GNU3i8hCxYjH3E0Nk9u4" name="Page-1">
    <mxGraphModel dx="1511" dy="819" grid="1" gridSize="10" guides="1" tooltips="1" connect="1" arrows="1" fold="1" page="1" pageScale="1" pageWidth="850" pageHeight="1100" math="0" shadow="0">
      <root>
        <mxCell id="0" />
        <mxCell id="1" parent="0" />
        <mxCell id="FXCXVvDxTQtwc45PbP1s-120" style="edgeStyle=orthogonalEdgeStyle;rounded=0;orthogonalLoop=1;jettySize=auto;html=1;startArrow=block;startFill=1;endArrow=block;endFill=1;" parent="1" source="FXCXVvDxTQtwc45PbP1s-93" target="FXCXVvDxTQtwc45PbP1s-94" edge="1">
          <mxGeometry relative="1" as="geometry" />
        </mxCell>
        <mxCell id="FXCXVvDxTQtwc45PbP1s-121" style="edgeStyle=orthogonalEdgeStyle;rounded=0;orthogonalLoop=1;jettySize=auto;html=1;startArrow=block;startFill=1;endArrow=block;endFill=1;" parent="1" source="FXCXVvDxTQtwc45PbP1s-94" target="FXCXVvDxTQtwc45PbP1s-95" edge="1">
          <mxGeometry relative="1" as="geometry" />
        </mxCell>
        <mxCell id="FXCXVvDxTQtwc45PbP1s-134" style="edgeStyle=orthogonalEdgeStyle;rounded=0;orthogonalLoop=1;jettySize=auto;html=1;startArrow=block;startFill=1;endArrow=block;endFill=1;" parent="1" source="FXCXVvDxTQtwc45PbP1s-95" target="FXCXVvDxTQtwc45PbP1s-97" edge="1">
          <mxGeometry relative="1" as="geometry" />
        </mxCell>
        <mxCell id="FXCXVvDxTQtwc45PbP1s-163" value="Region: Frankfurt" style="swimlane;fontStyle=0;horizontal=1;collapsible=0;startSize=28;swimlaneLine=0;swimlaneFillColor=none;fillColor=none;rounded=0;whiteSpace=wrap;html=1;absoluteArcSize=1;arcSize=0;strokeColor=#00882B;verticalAlign=top;align=left;spacingLeft=30;dashed=1;strokeWidth=1;container=1;dashPattern=1 1;" parent="1" vertex="1">
          <mxGeometry x="253.5" y="189.5" width="1246.5" height="920.5" as="geometry" />
        </mxCell>
        <mxCell id="FXCXVvDxTQtwc45PbP1s-164" value="" style="aspect=fixed;perimeter=ellipsePerimeter;html=1;align=center;shadow=0;dashed=0;fontColor=#4277BB;labelBackgroundColor=#ffffff;fontSize=12;spacingTop=3;image;image=img/lib/ibm/vpc/RegionTag.svg;part=1;" parent="FXCXVvDxTQtwc45PbP1s-163" vertex="1">
          <mxGeometry width="30" height="30" as="geometry" />
        </mxCell>
        <mxCell id="FXCXVvDxTQtwc45PbP1s-167" value="" style="swimlane;fontStyle=0;horizontal=1;collapsible=0;startSize=28;swimlaneLine=0;swimlaneFillColor=none;fillColor=none;rounded=0;whiteSpace=wrap;html=1;absoluteArcSize=1;arcSize=0;strokeColor=#4376BB;verticalAlign=top;align=left;spacingLeft=5;dashed=0;strokeWidth=1;container=1;fontColor=#99CCFF;" parent="1" vertex="1">
          <mxGeometry x="20" y="170" width="1520" height="960" as="geometry" />
        </mxCell>
        <mxCell id="FXCXVvDxTQtwc45PbP1s-168" value="Public&lt;br&gt;Network" style="aspect=fixed;perimeter=ellipsePerimeter;html=1;align=left;shadow=0;dashed=0;labelBackgroundColor=none;fontSize=12;spacingTop=0;image;image=img/lib/ibm/vpc/PublicTag.svg;part=1;labelPosition=right;verticalLabelPosition=middle;verticalAlign=middle;" parent="FXCXVvDxTQtwc45PbP1s-167" vertex="1">
          <mxGeometry width="30" height="30" as="geometry" />
        </mxCell>
        <mxCell id="FXCXVvDxTQtwc45PbP1s-161" value="Satellite: KRK-SAT-POC" style="swimlane;fontStyle=0;horizontal=1;collapsible=0;startSize=28;swimlaneLine=0;swimlaneFillColor=none;fillColor=none;rounded=0;whiteSpace=wrap;html=1;absoluteArcSize=1;arcSize=12;strokeColor=#417CB9;verticalAlign=top;align=left;spacingLeft=30;spacingTop=1;dashed=0;strokeWidth=1;" parent="FXCXVvDxTQtwc45PbP1s-167" vertex="1">
          <mxGeometry x="246.5" y="80.5" width="1200" height="839.5" as="geometry" />
        </mxCell>
        <mxCell id="FXCXVvDxTQtwc45PbP1s-162" value="" style="aspect=fixed;perimeter=ellipsePerimeter;html=1;align=center;shadow=0;dashed=0;fontColor=#4277BB;labelBackgroundColor=#ffffff;fontSize=12;spacingTop=3;image;image=img/lib/ibm/vpc/VPCTag.svg;part=1;" parent="FXCXVvDxTQtwc45PbP1s-161" vertex="1">
          <mxGeometry width="30" height="30" as="geometry" />
        </mxCell>
        <mxCell id="aa9Yx_nwmcOH-ikFaFp5-20" value="" style="endArrow=classic;startArrow=classic;html=1;rounded=0;strokeColor=default;exitX=1;exitY=0.5;exitDx=0;exitDy=0;entryX=0;entryY=0.5;entryDx=0;entryDy=0;edgeStyle=orthogonalEdgeStyle;" edge="1" parent="FXCXVvDxTQtwc45PbP1s-161" source="FXCXVvDxTQtwc45PbP1s-94" target="FXCXVvDxTQtwc45PbP1s-103">
          <mxGeometry width="50" height="50" relative="1" as="geometry">
            <mxPoint x="140" y="90" as="sourcePoint" />
            <mxPoint x="190" y="40" as="targetPoint" />
            <Array as="points">
              <mxPoint x="-53" y="179" />
              <mxPoint x="-70" y="179" />
              <mxPoint x="-70" y="130" />
            </Array>
          </mxGeometry>
        </mxCell>
        <mxCell id="FXCXVvDxTQtwc45PbP1s-143" value="Subnet 10.48.102.0/24" style="swimlane;fontStyle=0;horizontal=1;collapsible=0;startSize=28;swimlaneLine=0;swimlaneFillColor=none;fillColor=none;rounded=0;whiteSpace=wrap;html=1;absoluteArcSize=1;arcSize=12;strokeColor=#2A8838;verticalAlign=top;align=left;spacingLeft=30;spacingTop=1;dashed=0;strokeWidth=1;" parent="FXCXVvDxTQtwc45PbP1s-161" vertex="1">
          <mxGeometry x="30" y="49.5" width="1150" height="770.5" as="geometry" />
        </mxCell>
        <mxCell id="FXCXVvDxTQtwc45PbP1s-144" value="" style="aspect=fixed;perimeter=ellipsePerimeter;html=1;align=center;shadow=0;dashed=0;fontColor=#4277BB;labelBackgroundColor=#ffffff;fontSize=12;spacingTop=3;image;image=img/lib/ibm/vpc/SubnetTag.svg;part=1;" parent="FXCXVvDxTQtwc45PbP1s-143" vertex="1">
          <mxGeometry width="30" height="40" as="geometry" />
        </mxCell>
        <mxCell id="FXCXVvDxTQtwc45PbP1s-103" value="Public&lt;br&gt;Load&lt;br&gt;Balancer" style="aspect=fixed;perimeter=ellipsePerimeter;html=1;align=center;shadow=0;dashed=0;fontColor=#4277BB;labelBackgroundColor=#ffffff;fontSize=12;spacingTop=3;image;image=img/lib/ibm/vpc/LoadBalancer.svg;labelPosition=center;verticalLabelPosition=top;verticalAlign=bottom;" parent="FXCXVvDxTQtwc45PbP1s-143" vertex="1">
          <mxGeometry x="482.63" y="50" width="60" height="60" as="geometry" />
        </mxCell>
        <mxCell id="aa9Yx_nwmcOH-ikFaFp5-29" value="Zone 3" style="swimlane;fontStyle=0;horizontal=1;collapsible=0;startSize=28;swimlaneLine=0;swimlaneFillColor=none;fillColor=none;rounded=0;whiteSpace=wrap;html=1;absoluteArcSize=1;arcSize=0;strokeColor=#00882B;verticalAlign=top;align=left;spacingLeft=30;dashed=1;strokeWidth=1;container=1;" vertex="1" parent="FXCXVvDxTQtwc45PbP1s-143">
          <mxGeometry x="693.5" y="130.5" width="278.25" height="590" as="geometry" />
        </mxCell>
        <mxCell id="aa9Yx_nwmcOH-ikFaFp5-30" value="" style="aspect=fixed;perimeter=ellipsePerimeter;html=1;align=center;shadow=0;dashed=0;fontColor=#4277BB;labelBackgroundColor=#ffffff;fontSize=12;spacingTop=3;image;image=img/lib/ibm/vpc/ZoneTag.svg;part=1;" vertex="1" parent="aa9Yx_nwmcOH-ikFaFp5-29">
          <mxGeometry width="30" height="30" as="geometry" />
        </mxCell>
        <mxCell id="aa9Yx_nwmcOH-ikFaFp5-31" value="" style="sketch=0;html=1;dashed=0;whitespace=wrap;fillColor=#2875E2;strokeColor=#ffffff;points=[[0.005,0.63,0],[0.1,0.2,0],[0.9,0.2,0],[0.5,0,0],[0.995,0.63,0],[0.72,0.99,0],[0.5,1,0],[0.28,0.99,0]];shape=mxgraph.kubernetes.icon;prIcon=master" vertex="1" parent="aa9Yx_nwmcOH-ikFaFp5-29">
          <mxGeometry x="84.13" y="90" width="110" height="78.5" as="geometry" />
        </mxCell>
        <mxCell id="aa9Yx_nwmcOH-ikFaFp5-51" value="plkrsatcontrt3" style="text;align=center;verticalAlign=middle;resizable=0;points=[];autosize=1;strokeColor=none;fillColor=none;fontColor=#4277BB;labelBackgroundColor=#FFFFFF;html=1;" vertex="1" parent="aa9Yx_nwmcOH-ikFaFp5-29">
          <mxGeometry x="178.25" y="119.25" width="90" height="20" as="geometry" />
        </mxCell>
        <mxCell id="aa9Yx_nwmcOH-ikFaFp5-55" value="" style="sketch=0;html=1;dashed=0;whitespace=wrap;fillColor=#2875E2;strokeColor=#ffffff;points=[[0.005,0.63,0],[0.1,0.2,0],[0.9,0.2,0],[0.5,0,0],[0.995,0.63,0],[0.72,0.99,0],[0.5,1,0],[0.28,0.99,0]];shape=mxgraph.kubernetes.icon;prIcon=node;labelBackgroundColor=#FFFFFF;fontColor=#4277BB;" vertex="1" parent="aa9Yx_nwmcOH-ikFaFp5-29">
          <mxGeometry x="94.8200000000001" y="339" width="86" height="87.5" as="geometry" />
        </mxCell>
        <mxCell id="aa9Yx_nwmcOH-ikFaFp5-62" value="plkrsatwork3" style="text;align=center;verticalAlign=middle;resizable=0;points=[];autosize=1;strokeColor=none;fillColor=none;fontColor=#4277BB;labelBackgroundColor=#FFFFFF;html=1;" vertex="1" parent="aa9Yx_nwmcOH-ikFaFp5-29">
          <mxGeometry x="178.25" y="349.5" width="80" height="20" as="geometry" />
        </mxCell>
        <mxCell id="aa9Yx_nwmcOH-ikFaFp5-26" value="Zone 2" style="swimlane;fontStyle=0;horizontal=1;collapsible=0;startSize=28;swimlaneLine=0;swimlaneFillColor=none;fillColor=none;rounded=0;whiteSpace=wrap;html=1;absoluteArcSize=1;arcSize=0;strokeColor=#00882B;verticalAlign=top;align=left;spacingLeft=30;dashed=1;strokeWidth=1;container=1;" vertex="1" parent="FXCXVvDxTQtwc45PbP1s-143">
          <mxGeometry x="353.5" y="130.5" width="316.5" height="590" as="geometry" />
        </mxCell>
        <mxCell id="aa9Yx_nwmcOH-ikFaFp5-27" value="" style="aspect=fixed;perimeter=ellipsePerimeter;html=1;align=center;shadow=0;dashed=0;fontColor=#4277BB;labelBackgroundColor=#ffffff;fontSize=12;spacingTop=3;image;image=img/lib/ibm/vpc/ZoneTag.svg;part=1;" vertex="1" parent="aa9Yx_nwmcOH-ikFaFp5-26">
          <mxGeometry width="30" height="30" as="geometry" />
        </mxCell>
        <mxCell id="aa9Yx_nwmcOH-ikFaFp5-28" value="" style="sketch=0;html=1;dashed=0;whitespace=wrap;fillColor=#2875E2;strokeColor=#ffffff;points=[[0.005,0.63,0],[0.1,0.2,0],[0.9,0.2,0],[0.5,0,0],[0.995,0.63,0],[0.72,0.99,0],[0.5,1,0],[0.28,0.99,0]];shape=mxgraph.kubernetes.icon;prIcon=master" vertex="1" parent="aa9Yx_nwmcOH-ikFaFp5-26">
          <mxGeometry x="104.13" y="90" width="110" height="78.5" as="geometry" />
        </mxCell>
        <mxCell id="aa9Yx_nwmcOH-ikFaFp5-42" value="Private &lt;br&gt;Load Balancer" style="aspect=fixed;perimeter=ellipsePerimeter;html=1;align=left;shadow=0;dashed=0;fontColor=#4277BB;labelBackgroundColor=#ffffff;fontSize=12;spacingTop=3;image;image=img/lib/ibm/vpc/LoadBalancer.svg;labelPosition=right;verticalLabelPosition=middle;verticalAlign=middle;" vertex="1" parent="aa9Yx_nwmcOH-ikFaFp5-26">
          <mxGeometry x="129.13" y="220" width="60" height="60" as="geometry" />
        </mxCell>
        <mxCell id="aa9Yx_nwmcOH-ikFaFp5-40" value="plkrsatcontrt2" style="text;align=center;verticalAlign=middle;resizable=0;points=[];autosize=1;strokeColor=none;fillColor=none;fontColor=#4277BB;labelBackgroundColor=#FFFFFF;html=1;" vertex="1" parent="aa9Yx_nwmcOH-ikFaFp5-26">
          <mxGeometry x="200" y="119.5" width="110" height="20" as="geometry" />
        </mxCell>
        <mxCell id="aa9Yx_nwmcOH-ikFaFp5-50" value="" style="endArrow=classic;startArrow=classic;html=1;rounded=0;fontColor=#4277BB;strokeColor=default;entryX=0.5;entryY=1;entryDx=0;entryDy=0;entryPerimeter=0;exitX=0.5;exitY=0;exitDx=0;exitDy=0;" edge="1" parent="aa9Yx_nwmcOH-ikFaFp5-26" source="aa9Yx_nwmcOH-ikFaFp5-42" target="aa9Yx_nwmcOH-ikFaFp5-28">
          <mxGeometry width="50" height="50" relative="1" as="geometry">
            <mxPoint x="183.5" y="239.5" as="sourcePoint" />
            <mxPoint x="143.5" y="189.5" as="targetPoint" />
          </mxGeometry>
        </mxCell>
        <mxCell id="aa9Yx_nwmcOH-ikFaFp5-56" value="" style="sketch=0;html=1;dashed=0;whitespace=wrap;fillColor=#2875E2;strokeColor=#ffffff;points=[[0.005,0.63,0],[0.1,0.2,0],[0.9,0.2,0],[0.5,0,0],[0.995,0.63,0],[0.72,0.99,0],[0.5,1,0],[0.28,0.99,0]];shape=mxgraph.kubernetes.icon;prIcon=node;labelBackgroundColor=#FFFFFF;fontColor=#4277BB;" vertex="1" parent="aa9Yx_nwmcOH-ikFaFp5-26">
          <mxGeometry x="116.13" y="349" width="86" height="87.5" as="geometry" />
        </mxCell>
        <mxCell id="aa9Yx_nwmcOH-ikFaFp5-58" value="" style="endArrow=classic;startArrow=classic;html=1;rounded=0;fontColor=#4277BB;strokeColor=default;entryX=0.5;entryY=1;entryDx=0;entryDy=0;exitX=0.5;exitY=0;exitDx=0;exitDy=0;exitPerimeter=0;" edge="1" parent="aa9Yx_nwmcOH-ikFaFp5-26" source="aa9Yx_nwmcOH-ikFaFp5-56" target="aa9Yx_nwmcOH-ikFaFp5-42">
          <mxGeometry width="50" height="50" relative="1" as="geometry">
            <mxPoint x="38.69" y="389" as="sourcePoint" />
            <mxPoint x="157.8200000000001" y="309.5" as="targetPoint" />
          </mxGeometry>
        </mxCell>
        <mxCell id="aa9Yx_nwmcOH-ikFaFp5-63" value="plkrsatwork2" style="text;align=center;verticalAlign=middle;resizable=0;points=[];autosize=1;strokeColor=none;fillColor=none;fontColor=#4277BB;labelBackgroundColor=#FFFFFF;html=1;" vertex="1" parent="aa9Yx_nwmcOH-ikFaFp5-26">
          <mxGeometry x="200.82" y="382.75" width="80" height="20" as="geometry" />
        </mxCell>
        <mxCell id="aa9Yx_nwmcOH-ikFaFp5-64" value="Red Hat OpenShift Cluster" style="fontStyle=0;verticalAlign=top;align=center;spacingTop=-2;fillColor=none;rounded=0;whiteSpace=wrap;html=1;strokeColor=#919191;strokeWidth=2;dashed=1;container=1;collapsible=0;expand=0;recursiveResize=0;labelBackgroundColor=#FFFFFF;fontColor=#4277BB;" vertex="1" parent="aa9Yx_nwmcOH-ikFaFp5-26">
          <mxGeometry x="-225" y="300" width="825" height="209.5" as="geometry" />
        </mxCell>
        <mxCell id="aa9Yx_nwmcOH-ikFaFp5-34" value="" style="endArrow=classic;startArrow=classic;html=1;rounded=0;strokeColor=default;entryX=0.5;entryY=1;entryDx=0;entryDy=0;edgeStyle=orthogonalEdgeStyle;exitX=0.5;exitY=0;exitDx=0;exitDy=0;exitPerimeter=0;" edge="1" parent="FXCXVvDxTQtwc45PbP1s-143" source="aa9Yx_nwmcOH-ikFaFp5-23" target="FXCXVvDxTQtwc45PbP1s-103">
          <mxGeometry width="50" height="50" relative="1" as="geometry">
            <mxPoint x="173.5" y="160" as="sourcePoint" />
            <mxPoint x="264.4" y="100.5" as="targetPoint" />
          </mxGeometry>
        </mxCell>
        <mxCell id="aa9Yx_nwmcOH-ikFaFp5-35" value="" style="endArrow=classic;startArrow=classic;html=1;rounded=0;strokeColor=default;entryX=0.5;entryY=1;entryDx=0;entryDy=0;exitX=0.5;exitY=0;exitDx=0;exitDy=0;exitPerimeter=0;edgeStyle=orthogonalEdgeStyle;" edge="1" parent="FXCXVvDxTQtwc45PbP1s-143" source="aa9Yx_nwmcOH-ikFaFp5-28" target="FXCXVvDxTQtwc45PbP1s-103">
          <mxGeometry width="50" height="50" relative="1" as="geometry">
            <mxPoint x="514.4" y="180.5" as="sourcePoint" />
            <mxPoint x="504.4" y="160.5" as="targetPoint" />
          </mxGeometry>
        </mxCell>
        <mxCell id="aa9Yx_nwmcOH-ikFaFp5-36" value="" style="endArrow=classic;startArrow=classic;html=1;rounded=0;strokeColor=default;entryX=0.5;entryY=1;entryDx=0;entryDy=0;exitX=0.5;exitY=0;exitDx=0;exitDy=0;exitPerimeter=0;edgeStyle=orthogonalEdgeStyle;" edge="1" parent="FXCXVvDxTQtwc45PbP1s-143" source="aa9Yx_nwmcOH-ikFaFp5-31" target="FXCXVvDxTQtwc45PbP1s-103">
          <mxGeometry width="50" height="50" relative="1" as="geometry">
            <mxPoint x="704.4" y="380.5" as="sourcePoint" />
            <mxPoint x="754.4" y="330.5" as="targetPoint" />
          </mxGeometry>
        </mxCell>
        <mxCell id="aa9Yx_nwmcOH-ikFaFp5-44" value="" style="endArrow=classic;startArrow=classic;html=1;rounded=0;fontColor=default;strokeColor=default;edgeStyle=orthogonalEdgeStyle;entryX=0.5;entryY=0;entryDx=0;entryDy=0;exitX=0.5;exitY=1;exitDx=0;exitDy=0;exitPerimeter=0;" edge="1" parent="FXCXVvDxTQtwc45PbP1s-143" source="aa9Yx_nwmcOH-ikFaFp5-23" target="aa9Yx_nwmcOH-ikFaFp5-42">
          <mxGeometry width="50" height="50" relative="1" as="geometry">
            <mxPoint x="143.5" y="381" as="sourcePoint" />
            <mxPoint x="377.9" y="350" as="targetPoint" />
            <Array as="points">
              <mxPoint x="195" y="320" />
              <mxPoint x="195" y="331" />
              <mxPoint x="513" y="331" />
            </Array>
          </mxGeometry>
        </mxCell>
        <mxCell id="aa9Yx_nwmcOH-ikFaFp5-49" value="" style="endArrow=classic;startArrow=classic;html=1;rounded=0;fontColor=#4277BB;strokeColor=default;entryX=0.5;entryY=1;entryDx=0;entryDy=0;entryPerimeter=0;edgeStyle=orthogonalEdgeStyle;exitX=0.5;exitY=0;exitDx=0;exitDy=0;" edge="1" parent="FXCXVvDxTQtwc45PbP1s-143" source="aa9Yx_nwmcOH-ikFaFp5-42" target="aa9Yx_nwmcOH-ikFaFp5-31">
          <mxGeometry width="50" height="50" relative="1" as="geometry">
            <mxPoint x="447.9" y="341" as="sourcePoint" />
            <mxPoint x="507.9" y="310" as="targetPoint" />
            <Array as="points">
              <mxPoint x="513" y="331" />
              <mxPoint x="833" y="331" />
            </Array>
          </mxGeometry>
        </mxCell>
        <mxCell id="FXCXVvDxTQtwc45PbP1s-153" value="Zone 1" style="swimlane;fontStyle=0;horizontal=1;collapsible=0;startSize=28;swimlaneLine=0;swimlaneFillColor=none;fillColor=none;rounded=0;whiteSpace=wrap;html=1;absoluteArcSize=1;arcSize=0;strokeColor=#00882B;verticalAlign=top;align=left;spacingLeft=30;dashed=1;strokeWidth=1;container=1;" parent="FXCXVvDxTQtwc45PbP1s-143" vertex="1">
          <mxGeometry x="53.5" y="130.5" width="283.5" height="590" as="geometry" />
        </mxCell>
        <mxCell id="FXCXVvDxTQtwc45PbP1s-154" value="" style="aspect=fixed;perimeter=ellipsePerimeter;html=1;align=center;shadow=0;dashed=0;fontColor=#4277BB;labelBackgroundColor=#ffffff;fontSize=12;spacingTop=3;image;image=img/lib/ibm/vpc/ZoneTag.svg;part=1;" parent="FXCXVvDxTQtwc45PbP1s-153" vertex="1">
          <mxGeometry width="30" height="30" as="geometry" />
        </mxCell>
        <mxCell id="aa9Yx_nwmcOH-ikFaFp5-23" value="" style="sketch=0;html=1;dashed=0;whitespace=wrap;fillColor=#2875E2;strokeColor=#ffffff;points=[[0.005,0.63,0],[0.1,0.2,0],[0.9,0.2,0],[0.5,0,0],[0.995,0.63,0],[0.72,0.99,0],[0.5,1,0],[0.28,0.99,0]];shape=mxgraph.kubernetes.icon;prIcon=master" vertex="1" parent="FXCXVvDxTQtwc45PbP1s-153">
          <mxGeometry x="86.75" y="89.5" width="110" height="78.5" as="geometry" />
        </mxCell>
        <mxCell id="aa9Yx_nwmcOH-ikFaFp5-53" value="" style="sketch=0;html=1;dashed=0;whitespace=wrap;fillColor=#2875E2;strokeColor=#ffffff;points=[[0.005,0.63,0],[0.1,0.2,0],[0.9,0.2,0],[0.5,0,0],[0.995,0.63,0],[0.72,0.99,0],[0.5,1,0],[0.28,0.99,0]];shape=mxgraph.kubernetes.icon;prIcon=node;labelBackgroundColor=#FFFFFF;fontColor=#4277BB;" vertex="1" parent="FXCXVvDxTQtwc45PbP1s-153">
          <mxGeometry x="97.44" y="339" width="86" height="87.5" as="geometry" />
        </mxCell>
        <mxCell id="aa9Yx_nwmcOH-ikFaFp5-52" value="plkrsatcontrt1" style="text;align=center;verticalAlign=middle;resizable=0;points=[];autosize=1;strokeColor=none;fillColor=none;fontColor=#4277BB;labelBackgroundColor=#FFFFFF;html=1;" vertex="1" parent="FXCXVvDxTQtwc45PbP1s-153">
          <mxGeometry x="180" y="119.5" width="90" height="20" as="geometry" />
        </mxCell>
        <mxCell id="aa9Yx_nwmcOH-ikFaFp5-60" value="plkrsatwork1" style="text;align=center;verticalAlign=middle;resizable=0;points=[];autosize=1;strokeColor=none;fillColor=none;fontColor=#4277BB;labelBackgroundColor=#FFFFFF;html=1;" vertex="1" parent="FXCXVvDxTQtwc45PbP1s-153">
          <mxGeometry x="183.69" y="379" width="80" height="20" as="geometry" />
        </mxCell>
        <mxCell id="aa9Yx_nwmcOH-ikFaFp5-57" value="" style="endArrow=classic;startArrow=classic;html=1;rounded=0;fontColor=#4277BB;strokeColor=default;exitX=0.5;exitY=0;exitDx=0;exitDy=0;exitPerimeter=0;edgeStyle=orthogonalEdgeStyle;entryX=0.5;entryY=1;entryDx=0;entryDy=0;" edge="1" parent="FXCXVvDxTQtwc45PbP1s-143" source="aa9Yx_nwmcOH-ikFaFp5-53" target="aa9Yx_nwmcOH-ikFaFp5-42">
          <mxGeometry width="50" height="50" relative="1" as="geometry">
            <mxPoint x="222.19" y="459.5" as="sourcePoint" />
            <mxPoint x="522.5" y="430" as="targetPoint" />
            <Array as="points">
              <mxPoint x="194" y="460" />
              <mxPoint x="513" y="460" />
              <mxPoint x="513" y="430" />
              <mxPoint x="513" y="430" />
            </Array>
          </mxGeometry>
        </mxCell>
        <mxCell id="aa9Yx_nwmcOH-ikFaFp5-59" value="" style="endArrow=classic;startArrow=classic;html=1;rounded=0;fontColor=#4277BB;strokeColor=default;entryX=0.5;entryY=0;entryDx=0;entryDy=0;entryPerimeter=0;edgeStyle=orthogonalEdgeStyle;exitX=0.5;exitY=1;exitDx=0;exitDy=0;" edge="1" parent="FXCXVvDxTQtwc45PbP1s-143" source="aa9Yx_nwmcOH-ikFaFp5-42" target="aa9Yx_nwmcOH-ikFaFp5-55">
          <mxGeometry width="50" height="50" relative="1" as="geometry">
            <mxPoint x="493.5" y="430" as="sourcePoint" />
            <mxPoint x="632.19" y="429.5" as="targetPoint" />
            <Array as="points">
              <mxPoint x="513" y="460" />
              <mxPoint x="831" y="460" />
            </Array>
          </mxGeometry>
        </mxCell>
        <mxCell id="FXCXVvDxTQtwc45PbP1s-97" value="VPN&lt;br&gt;Gateway" style="aspect=fixed;perimeter=ellipsePerimeter;html=1;align=center;shadow=0;dashed=0;fontColor=#4277BB;labelBackgroundColor=#ffffff;fontSize=12;spacingTop=3;image;image=img/lib/ibm/vpc/VPNGateway.svg;" parent="FXCXVvDxTQtwc45PbP1s-167" vertex="1">
          <mxGeometry x="156.5" y="390.5" width="60" height="60" as="geometry" />
        </mxCell>
        <mxCell id="FXCXVvDxTQtwc45PbP1s-115" value="Icons" style="" parent="0" />
        <mxCell id="FXCXVvDxTQtwc45PbP1s-93" value="User" style="aspect=fixed;perimeter=ellipsePerimeter;html=1;align=center;shadow=0;dashed=0;fontColor=#4277BB;labelBackgroundColor=#ffffff;fontSize=12;spacingTop=3;image;image=img/lib/ibm/users/user.svg;" parent="FXCXVvDxTQtwc45PbP1s-115" vertex="1">
          <mxGeometry x="153.5" y="219.5" width="60" height="60" as="geometry" />
        </mxCell>
        <mxCell id="aa9Yx_nwmcOH-ikFaFp5-48" value="" style="edgeStyle=orthogonalEdgeStyle;rounded=0;orthogonalLoop=1;jettySize=auto;html=1;fontColor=#99CCFF;startArrow=blockThin;startFill=1;endArrow=blockThin;endFill=1;strokeColor=default;" edge="1" parent="FXCXVvDxTQtwc45PbP1s-115" source="FXCXVvDxTQtwc45PbP1s-94" target="FXCXVvDxTQtwc45PbP1s-95">
          <mxGeometry relative="1" as="geometry" />
        </mxCell>
        <mxCell id="FXCXVvDxTQtwc45PbP1s-94" value="Internet" style="aspect=fixed;perimeter=ellipsePerimeter;html=1;align=center;shadow=0;dashed=0;fontColor=#4277BB;labelBackgroundColor=#ffffff;fontSize=12;spacingTop=3;image;image=img/lib/ibm/vpc/Internet.svg;" parent="FXCXVvDxTQtwc45PbP1s-115" vertex="1">
          <mxGeometry x="153.5" y="379.5" width="60" height="60" as="geometry" />
        </mxCell>
        <mxCell id="FXCXVvDxTQtwc45PbP1s-95" value="VPN&lt;br&gt;Connection" style="aspect=fixed;perimeter=ellipsePerimeter;html=1;align=center;shadow=0;dashed=0;fontColor=#4277BB;labelBackgroundColor=#ffffff;fontSize=12;spacingTop=3;image;image=img/lib/ibm/vpc/VPNConnection.svg;" parent="FXCXVvDxTQtwc45PbP1s-115" vertex="1">
          <mxGeometry x="153.5" y="539.5" width="60" height="60" as="geometry" />
        </mxCell>
      </root>
    </mxGraphModel>
  </diagram>
</mxfile>
